# xmcd
#
# Track frame offsets: 
#        150
#        17076
#        35469
#        55155
#        74344
#        96195
#        113158
#        128439
#        145444
#        162660
#        179812
#
# Disc length: 2702 seconds
#
# Revision: 0
# Processed by: cddbd v1.5.2PL0 Copyright (c) Steve Scherf et al.
# Submitted via: ExactAudioCopy v1.3
#
DISCID=9e0a8c0b
DTITLE=Tubesnakes - Walking
DYEAR=2014
DGENRE=Blues
TTITLE0=Hard love
TTITLE1=You look at me
TTITLE2=Walking
TTITLE3=Black inside
TTITLE4=Your summer
TTITLE5=It needs working
TTITLE6=Rattlesnake
TTITLE7=I've got nothing
TTITLE8=Stand up
TTITLE9=When I breathe
TTITLE10=Changes are coming
EXTD=
EXTT0=
EXTT1=
EXTT2=
EXTT3=
EXTT4=
EXTT5=
EXTT6=
EXTT7=
EXTT8=
EXTT9=
EXTT10=
PLAYORDER=
